# xmcd
# Track frame offsets:
# 150
# 13684
# 32121
# 46249
# 69485
# 88336
# 106027
# 123897
# 138108
# 155500
# 169168
# 182558
# 205313
# 223506
#
# Disc length: 3233 seconds
# Revision: 0
# Processed by: cddbd v1.5.2PL0 Copyright (c) Steve Scherf et al.
# Submitted via: VisiTrax 2.10.0.248 - For more info visit www.synapsa.com
#
DISCID=ba0c9f0e
DTITLE=DeSanto, Sugar Pie - Refined Sugar
DYEAR=2006
DGENRE=Blues
TTITLE0=Matter of Time
TTITLE1=Blues Hall of Fame
TTITLE2=Somebody Scream
TTITLE3=Life Goes On
TTITLE4=Nobody's Home
TTITLE5=How Many Times
TTITLE6=Gimme a Penny
TTITLE7=Black Rat
TTITLE8=Darkness to the Light
TTITLE9=Git Back
TTITLE10=I Don't Care
TTITLE11=I Need Help
TTITLE12=I Need to Live Again
TTITLE13=Odds
EXTD=
EXTT0=
EXTT1=
EXTT2=
EXTT3=
EXTT4=
EXTT5=
EXTT6=
EXTT7=
EXTT8=
EXTT9=
EXTT10=
EXTT11=
EXTT12=
EXTT13=
PLAYORDER=
